<svg id="Icons" height="512" viewBox="0 0 74 74" width="512" xmlns="http://www.w3.org/2000/svg"><path d="m38.19 72h-2.97a1 1 0 0 1 0-2h2.97a1 1 0 0 1 0 2z"/><path d="m69 72h-23.81a1 1 0 0 1 0-2h23.81a1 1 0 0 0 1-1v-64a1 1 0 0 0 -1-1h-64a1 1 0 0 0 -1 1v64a1 1 0 0 0 1 1h13.32a1 1 0 0 1 0 2h-13.32a3 3 0 0 1 -3-3v-64a3 3 0 0 1 3-3h64a3 3 0 0 1 3 3v64a3 3 0 0 1 -3 3z"/><path d="m28.22 72h-2.9a1 1 0 1 1 0-2h2.9a1 1 0 0 1 0 2z"/><path d="m71 19h-68a1 1 0 0 1 0-2h68a1 1 0 0 1 0 2z"/><path d="m12.171 14.275a3.692 3.692 0 1 1 3.691-3.692 3.7 3.7 0 0 1 -3.691 3.692zm0-5.383a1.692 1.692 0 1 0 1.691 1.691 1.694 1.694 0 0 0 -1.691-1.691z"/><path d="m21.542 14.275a3.692 3.692 0 1 1 3.691-3.692 3.7 3.7 0 0 1 -3.691 3.692zm0-5.383a1.692 1.692 0 1 0 1.691 1.691 1.693 1.693 0 0 0 -1.691-1.691z"/><path d="m30.913 14.275a3.692 3.692 0 1 1 3.687-3.692 3.7 3.7 0 0 1 -3.687 3.692zm0-5.383a1.692 1.692 0 1 0 1.687 1.691 1.693 1.693 0 0 0 -1.687-1.691z"/><path d="m64.521 11.583h-26.083a1 1 0 0 1 0-2h26.083a1 1 0 0 1 0 2z"/><path d="m49.63 58.781h-25.26a1 1 0 0 1 -1-1v-6.195a1 1 0 0 1 2 0v5.2h23.26v-5.2a1 1 0 0 1 2 0v6.2a1 1 0 0 1 -1 .995z"/><path d="m37 51.347a1 1 0 0 1 -1-1v-19.128a1 1 0 1 1 2 0v19.128a1 1 0 0 1 -1 1z"/><path d="m41.956 37.175a1 1 0 0 1 -.707-.293l-4.249-4.249-4.249 4.249a1 1 0 0 1 -1.414-1.414l4.956-4.956a1 1 0 0 1 1.414 0l4.956 4.956a1 1 0 0 1 -.707 1.707z"/></svg>